<?xml version="1.0" standalone="no"?>
<!DOCTYPE svg PUBLIC "-//W3C//DTD SVG 20010904//EN"
 "http://www.w3.org/TR/2001/REC-SVG-20010904/DTD/svg10.dtd">
<svg version="1.0" xmlns="http://www.w3.org/2000/svg"
 width="225.000000pt" height="225.000000pt" viewBox="0 0 225.000000 225.000000"
 preserveAspectRatio="xMidYMid meet">

<g transform="translate(0.000000,225.000000) scale(0.100000,-0.100000)"
fill="#000000" stroke="none">
<path d="M560 1500 c0 -73 4 -120 10 -120 6 0 10 43 10 110 l0 110 94 0 c53 0
98 4 101 10 4 6 -33 10 -104 10 l-111 0 0 -120z"/>
<path d="M1475 1610 c3 -6 48 -10 101 -10 l94 0 0 -110 c0 -67 4 -110 10 -110
6 0 10 47 10 120 l0 120 -111 0 c-71 0 -108 -4 -104 -10z"/>
<path d="M612 1540 c0 -19 2 -27 5 -17 2 9 2 25 0 35 -3 9 -5 1 -5 -18z"/>
<path d="M1632 1540 c0 -19 2 -27 5 -17 2 9 2 25 0 35 -3 9 -5 1 -5 -18z"/>
<path d="M760 1075 l0 -435 365 0 365 0 0 435 0 435 -365 0 -365 0 0 -435z
m690 195 l0 -200 -40 0 c-22 0 -40 -4 -40 -10 0 -5 -11 -10 -24 -10 -14 0 -28
5 -31 10 -3 6 -24 10 -45 10 -21 0 -42 -4 -45 -10 -3 -5 -17 -10 -31 -10 -13
0 -24 5 -24 10 0 6 -20 10 -45 10 -25 0 -45 -4 -45 -10 0 -5 -11 -10 -24 -10
-14 0 -28 5 -31 10 -3 6 -24 10 -45 10 -21 0 -42 -4 -45 -10 -3 -5 -17 -10
-31 -10 -13 0 -24 5 -24 10 0 6 -18 10 -40 10 l-40 0 0 200 0 200 325 0 325 0
0 -200z m-583 -240 c5 -19 14 -20 259 -20 247 0 254 1 254 20 0 16 7 20 35 20
l35 0 -2 -182 -3 -183 -320 0 -320 0 -3 183 -2 182 31 0 c22 0 32 -5 36 -20z"/>
<path d="M870 1375 c0 -13 35 -15 255 -15 220 0 255 2 255 15 0 13 -35 15
-255 15 -220 0 -255 -2 -255 -15z"/>
<path d="M870 1290 c0 -19 7 -20 255 -20 248 0 255 1 255 20 0 19 -7 20 -255
20 -248 0 -255 -1 -255 -20z"/>
<path d="M870 1200 c0 -20 5 -20 187 -18 170 3 188 5 191 21 3 16 -11 17 -187
17 -185 0 -191 -1 -191 -20z"/>
<path d="M870 1120 c0 -19 7 -20 255 -20 248 0 255 1 255 20 0 19 -7 20 -255
20 -248 0 -255 -1 -255 -20z"/>
<path d="M870 950 c0 -19 7 -20 255 -20 248 0 255 1 255 20 0 19 -7 20 -255
20 -248 0 -255 -1 -255 -20z"/>
<path d="M870 860 c0 -19 7 -20 255 -20 248 0 255 1 255 20 0 19 -7 20 -255
20 -248 0 -255 -1 -255 -20z"/>
<path d="M870 780 c0 -19 7 -20 190 -20 183 0 190 1 190 20 0 19 -7 20 -190
20 -183 0 -190 -1 -190 -20z"/>
<path d="M560 1320 c0 -16 5 -30 10 -30 6 0 10 14 10 30 0 17 -4 30 -10 30 -5
0 -10 -13 -10 -30z"/>
<path d="M1670 1320 c0 -16 5 -30 10 -30 6 0 10 14 10 30 0 17 -4 30 -10 30
-5 0 -10 -13 -10 -30z"/>
<path d="M560 1240 c0 -11 5 -20 10 -20 6 0 10 9 10 20 0 11 -4 20 -10 20 -5
0 -10 -9 -10 -20z"/>
<path d="M1670 1240 c0 -11 5 -20 10 -20 6 0 10 9 10 20 0 11 -4 20 -10 20 -5
0 -10 -9 -10 -20z"/>
<path d="M600 1100 c0 -5 16 -10 35 -10 19 0 35 5 35 10 0 6 -16 10 -35 10
-19 0 -35 -4 -35 -10z"/>
<path d="M560 1060 c0 -6 33 -10 80 -10 47 0 80 4 80 10 0 6 -33 10 -80 10
-47 0 -80 -4 -80 -10z"/>
<path d="M1530 1060 c0 -6 33 -10 80 -10 47 0 80 4 80 10 0 6 -33 10 -80 10
-47 0 -80 -4 -80 -10z"/>
<path d="M1580 1012 c0 -4 16 -9 35 -10 19 -2 35 2 35 8 0 5 -16 10 -35 10
-19 0 -35 -4 -35 -8z"/>
<path d="M560 660 l0 -120 110 0 c67 0 110 4 110 10 0 6 -40 10 -100 10 l-100
0 0 110 c0 67 -4 110 -10 110 -6 0 -10 -47 -10 -120z"/>
<path d="M1670 670 l0 -110 -100 0 c-60 0 -100 -4 -100 -10 0 -6 43 -10 110
-10 l110 0 0 120 c0 73 -4 120 -10 120 -6 0 -10 -43 -10 -110z"/>
<path d="M613 625 c0 -22 2 -30 4 -17 2 12 2 30 0 40 -3 9 -5 -1 -4 -23z"/>
<path d="M1633 625 c0 -22 2 -30 4 -17 2 12 2 30 0 40 -3 9 -5 -1 -4 -23z"/>
</g>
</svg>
